<svg width="123" height="32" viewBox="0 0 123 32" fill="none" xmlns="http://www.w3.org/2000/svg">
<path d="M66.5607 15H64.5919V9.94531H59.506V15H57.5294V3.625H59.506V8.35938H64.5919V3.625H66.5607V15ZM72.4435 15.1562C71.2404 15.1562 70.2638 14.7786 69.5138 14.0234C68.769 13.263 68.3966 12.2526 68.3966 10.9922V10.7578C68.3966 9.91406 68.5581 9.16146 68.881 8.5C69.2091 7.83333 69.6674 7.3151 70.256 6.94531C70.8445 6.57552 71.5008 6.39062 72.2247 6.39062C73.3758 6.39062 74.2638 6.75781 74.8888 7.49219C75.519 8.22656 75.8341 9.26562 75.8341 10.6094V11.375H70.3107C70.368 12.0729 70.5997 12.625 71.006 13.0312C71.4174 13.4375 71.9331 13.6406 72.5529 13.6406C73.4226 13.6406 74.131 13.2891 74.6779 12.5859L75.7013 13.5625C75.3628 14.0677 74.9096 14.4609 74.3419 14.7422C73.7794 15.0182 73.1466 15.1562 72.4435 15.1562ZM72.2169 7.91406C71.6961 7.91406 71.2742 8.09635 70.9513 8.46094C70.6336 8.82552 70.4305 9.33333 70.3419 9.98438H73.9591V9.84375C73.9174 9.20833 73.7482 8.72917 73.4513 8.40625C73.1544 8.07812 72.743 7.91406 72.2169 7.91406ZM79.3341 15H77.4357V3H79.3341V15ZM88.8107 10.8594C88.8107 12.1667 88.5138 13.2109 87.92 13.9922C87.3263 14.7682 86.5294 15.1562 85.5294 15.1562C84.6023 15.1562 83.8601 14.8516 83.3029 14.2422V18.25H81.4044V6.54688H83.1544L83.2325 7.40625C83.7898 6.72917 84.5476 6.39062 85.506 6.39062C86.5372 6.39062 87.3445 6.77604 87.9279 7.54688C88.5164 8.3125 88.8107 9.3776 88.8107 10.7422V10.8594ZM86.92 10.6953C86.92 9.85156 86.7508 9.18229 86.4122 8.6875C86.0789 8.19271 85.5997 7.94531 84.9747 7.94531C84.1987 7.94531 83.6414 8.26562 83.3029 8.90625V12.6562C83.6466 13.3125 84.2091 13.6406 84.9904 13.6406C85.5945 13.6406 86.0659 13.3984 86.4044 12.9141C86.7482 12.4245 86.92 11.6849 86.92 10.6953ZM92.4435 15H90.545V6.54688H92.4435V15ZM90.4279 4.35156C90.4279 4.0599 90.519 3.81771 90.7013 3.625C90.8888 3.43229 91.1544 3.33594 91.4982 3.33594C91.8419 3.33594 92.1075 3.43229 92.295 3.625C92.4825 3.81771 92.5763 4.0599 92.5763 4.35156C92.5763 4.63802 92.4825 4.8776 92.295 5.07031C92.1075 5.25781 91.8419 5.35156 91.4982 5.35156C91.1544 5.35156 90.8888 5.25781 90.7013 5.07031C90.519 4.8776 90.4279 4.63802 90.4279 4.35156ZM96.2794 6.54688L96.3341 7.52344C96.9591 6.76823 97.7794 6.39062 98.795 6.39062C100.555 6.39062 101.451 7.39844 101.483 9.41406V15H99.5841V9.52344C99.5841 8.98698 99.4669 8.59115 99.2325 8.33594C99.0034 8.07552 98.6258 7.94531 98.0997 7.94531C97.3341 7.94531 96.7638 8.29167 96.3888 8.98438V15H94.4904V6.54688H96.2794ZM103.092 10.7109C103.092 9.39844 103.399 8.35156 104.014 7.57031C104.634 6.78385 105.454 6.39062 106.475 6.39062C107.438 6.39062 108.196 6.72656 108.748 7.39844L108.834 6.54688H110.545V14.7422C110.545 15.8516 110.199 16.7266 109.506 17.3672C108.818 18.0078 107.889 18.3281 106.717 18.3281C106.097 18.3281 105.49 18.1979 104.897 17.9375C104.308 17.6823 103.86 17.3464 103.553 16.9297L104.451 15.7891C105.035 16.4818 105.753 16.8281 106.608 16.8281C107.238 16.8281 107.735 16.6562 108.1 16.3125C108.464 15.974 108.647 15.474 108.647 14.8125V14.2422C108.1 14.8516 107.371 15.1562 106.459 15.1562C105.47 15.1562 104.66 14.763 104.029 13.9766C103.404 13.1901 103.092 12.1016 103.092 10.7109ZM104.983 10.875C104.983 11.724 105.154 12.3932 105.498 12.8828C105.847 13.3672 106.329 13.6094 106.943 13.6094C107.709 13.6094 108.277 13.2812 108.647 12.625V8.90625C108.287 8.26562 107.725 7.94531 106.959 7.94531C106.334 7.94531 105.847 8.19271 105.498 8.6875C105.154 9.18229 104.983 9.91146 104.983 10.875Z" fill="#352868"/>
<path d="M65.2872 29.6567H63.5646V25.2339H59.1144V29.6567H57.3849V19.7036H59.1144V23.8462H63.5646V19.7036H65.2872V29.6567ZM71.5968 29.6567C71.5239 29.5154 71.4601 29.2853 71.4054 28.9663C70.8767 29.5177 70.2296 29.7934 69.464 29.7934C68.7212 29.7934 68.115 29.5815 67.6456 29.1577C67.1762 28.7339 66.9415 28.2098 66.9415 27.5854C66.9415 26.797 67.2332 26.1932 67.8165 25.7739C68.4044 25.3501 69.243 25.1382 70.3322 25.1382H71.3507V24.6528C71.3507 24.27 71.2436 23.9647 71.0294 23.7368C70.8152 23.5044 70.4894 23.3882 70.0519 23.3882C69.6736 23.3882 69.3637 23.4839 69.1222 23.6753C68.8807 23.8621 68.7599 24.1014 68.7599 24.393H67.0988C67.0988 23.9874 67.2332 23.6092 67.5021 23.2583C67.771 22.9028 68.1355 22.6248 68.5958 22.4243C69.0607 22.2238 69.5779 22.1235 70.1476 22.1235C71.0135 22.1235 71.7039 22.3423 72.2189 22.7798C72.7338 23.2127 72.9982 23.8234 73.0118 24.6118V27.9477C73.0118 28.6131 73.1053 29.144 73.2921 29.5405V29.6567H71.5968ZM69.7716 28.4604C70.0997 28.4604 70.4073 28.3807 70.6945 28.2212C70.9861 28.0617 71.2049 27.8475 71.3507 27.5786V26.1841H70.4552C69.84 26.1841 69.3774 26.2911 69.0675 26.5053C68.7576 26.7195 68.6027 27.0226 68.6027 27.4145C68.6027 27.7335 68.7075 27.9887 68.9171 28.1801C69.1313 28.367 69.4161 28.4604 69.7716 28.4604ZM76.2931 22.2602L76.3409 23.1147C76.8878 22.4539 77.6056 22.1235 78.4943 22.1235C80.0346 22.1235 80.8185 23.0053 80.8458 24.769V29.6567H79.1847V24.8647C79.1847 24.3953 79.0822 24.049 78.8771 23.8257C78.6766 23.5978 78.3462 23.4839 77.8859 23.4839C77.2159 23.4839 76.7169 23.7869 76.3888 24.393V29.6567H74.7277V22.2602H76.2931ZM82.2335 25.9038C82.2335 24.7645 82.4978 23.8507 83.0265 23.1626C83.5551 22.4699 84.2638 22.1235 85.1525 22.1235C85.9363 22.1235 86.5698 22.3969 87.0529 22.9438V19.1567H88.714V29.6567H87.2101L87.1281 28.8911C86.6313 29.4926 85.9682 29.7934 85.1388 29.7934C84.2729 29.7934 83.5711 29.4448 83.0333 28.7475C82.5001 28.0503 82.2335 27.1023 82.2335 25.9038ZM83.8947 26.0473C83.8947 26.7993 84.0382 27.3872 84.3253 27.811C84.617 28.2303 85.0294 28.4399 85.5626 28.4399C86.2417 28.4399 86.7384 28.1369 87.0529 27.5307V24.3725C86.7475 23.7801 86.2553 23.4839 85.5763 23.4839C85.0385 23.4839 84.6238 23.698 84.3322 24.1264C84.0405 24.5503 83.8947 25.1906 83.8947 26.0473ZM94.5929 27.6469C94.5929 27.3507 94.4698 27.1251 94.2238 26.9702C93.9822 26.8152 93.5789 26.6785 93.0138 26.56C92.4487 26.4415 91.977 26.2911 91.5988 26.1089C90.7693 25.7078 90.3546 25.1268 90.3546 24.3657C90.3546 23.7277 90.6235 23.1945 91.1613 22.7661C91.699 22.3377 92.3826 22.1235 93.212 22.1235C94.0962 22.1235 94.8094 22.3423 95.3517 22.7798C95.8986 23.2173 96.172 23.7846 96.172 24.4819H94.5109C94.5109 24.1629 94.3924 23.8986 94.1554 23.6889C93.9184 23.4747 93.604 23.3676 93.212 23.3676C92.8475 23.3676 92.549 23.452 92.3165 23.6206C92.0887 23.7892 91.9747 24.0148 91.9747 24.2973C91.9747 24.5525 92.0818 24.7508 92.296 24.8921C92.5102 25.0333 92.9432 25.1769 93.5948 25.3227C94.2465 25.464 94.757 25.6349 95.1261 25.8354C95.4998 26.0314 95.7755 26.2684 95.9532 26.5464C96.1355 26.8244 96.2267 27.1616 96.2267 27.5581C96.2267 28.2234 95.951 28.7635 95.3995 29.1782C94.8481 29.5883 94.1258 29.7934 93.2325 29.7934C92.6264 29.7934 92.0864 29.6841 91.6124 29.4653C91.1385 29.2466 90.7693 28.9458 90.505 28.563C90.2407 28.1801 90.1085 27.7677 90.1085 27.3257H91.7218C91.7446 27.7176 91.8927 28.0206 92.1661 28.2348C92.4396 28.4445 92.8019 28.5493 93.2531 28.5493C93.6906 28.5493 94.0232 28.4673 94.2511 28.3032C94.479 28.1346 94.5929 27.9158 94.5929 27.6469Z" fill="#352868"/>
<g clip-path="url(#clip0)">
<path fill-rule="evenodd" clip-rule="evenodd" d="M19.4846 13.5699C18.6485 12.2989 19.2141 10.3982 19.7319 9.10798C20.2005 7.9403 20.8456 6.72822 21.5288 5.67044L21.7434 5.33809L22.1345 5.31255C22.8747 5.26428 23.6104 5.19419 24.3481 5.11905C24.8974 5.06306 25.4471 5.00618 25.9986 4.98019C27.3549 4.91604 28.5984 5.08014 29.9249 5.36155C30.9485 5.57866 31.9657 5.84879 32.9729 6.13273C33.9116 6.39736 34.8469 6.67684 35.7795 6.96375C35.8232 7.15918 35.885 7.35149 35.9656 7.53786L42.0013 21.5109L42.0596 21.646C41.8091 21.8218 41.5605 22.0003 41.3128 22.18L40.7017 22.6234L40.2387 22.0231C39.5793 21.1678 38.8611 20.3423 38.1439 19.5363C36.1746 17.3227 32.2543 12.7579 29.8669 11.7415C28.8684 11.3165 27.9283 11.243 26.9074 11.6264C26.0156 11.9615 25.1937 12.5832 24.4329 13.151C22.9444 14.2616 20.8179 15.5959 19.4846 13.5699" fill="#352868"/>
<path fill-rule="evenodd" clip-rule="evenodd" d="M41.2608 24.6496C41.1794 25.0636 40.9818 25.4457 40.6796 25.7382C40.3312 26.075 39.8827 26.2575 39.4085 26.3129C38.8258 26.381 38.2258 26.2662 37.666 26.0704L33.3671 21.3023C33.2216 21.1411 32.9747 21.1301 32.8159 21.2774C32.6569 21.4249 32.6459 21.6752 32.7913 21.8363L37.2376 26.768C37.2855 27.1666 37.2685 27.5729 37.1273 27.9426C36.9917 28.2971 36.7428 28.5791 36.414 28.7591C36.0914 28.9356 35.7218 29.0084 35.3575 29.0091C35.124 29.0096 34.877 28.9817 34.6356 28.923L29.7703 23.6575C29.6222 23.4981 29.3745 23.4904 29.2173 23.6404C29.06 23.7905 29.0525 24.0415 29.2005 24.2009L33.7266 29.0993C33.3496 30.9623 31.8056 31.4243 30.2508 30.6233L30.1449 30.5687L29.4117 29.8468C29.4064 29.8407 29.4012 29.8349 29.3955 29.8291L26.0287 26.3811C25.8763 26.226 25.6288 26.2253 25.4757 26.3798C25.3227 26.534 25.322 26.7849 25.4742 26.9401L28.3966 29.9328L27.935 30.0598C27.3954 30.2082 26.8422 30.3345 26.2865 30.4016C25.4722 30.5 24.5231 30.4895 23.8334 29.9767C23.003 29.3593 22.182 28.6538 21.3844 27.9916C20.0764 26.9055 18.775 25.8108 17.4753 24.7144C15.7371 23.2483 14.0021 21.7777 12.2697 20.3042L16.2182 5.36541C17.5734 5.41219 18.9315 5.42971 20.2872 5.39511L20.7782 5.38264C20.0955 6.45809 19.4798 7.62711 19.0056 8.8083C18.3737 10.3827 17.8211 12.4742 18.8323 14.011C20.1246 15.9751 22.0698 15.6054 23.7974 14.5472C24.1768 14.3148 24.5407 14.0574 24.8975 13.7912C25.5921 13.273 26.3669 12.6772 27.1797 12.3719C28.0125 12.0592 28.7527 12.1294 29.5632 12.4745C30.2556 12.7692 30.9987 13.3561 31.5726 13.8415C33.5007 15.4725 40.9097 23.5985 41.2608 24.6496" fill="#352868"/>
<path fill-rule="evenodd" clip-rule="evenodd" d="M11.4546 20.3169L15.541 4.85605C15.7078 4.22462 15.6044 3.58026 15.3031 3.0513V3.04818C15.002 2.5198 14.5027 2.10682 13.8777 1.93693L7.04532 0.0809384C6.42236 -0.088058 5.78693 0.0167851 5.26508 0.322256H5.26199C4.74071 0.627429 4.33329 1.13368 4.16587 1.76719L0.0794687 17.2281C-0.0873289 17.8595 0.016183 18.5037 0.317449 19.0328V19.0359C0.618429 19.5644 1.11779 19.9772 1.74282 20.1471L8.57521 22.0031C9.19812 22.1722 9.83356 22.0673 10.3555 21.762H10.3586C10.8798 21.4567 11.2871 20.9505 11.4546 20.3169ZM5.56777 14.1122C6.1699 14.1122 6.71516 14.3598 7.1098 14.7599C7.50446 15.1601 7.74868 15.7127 7.74868 16.3232C7.74868 16.9337 7.50446 17.4864 7.1098 17.8865C6.71516 18.2866 6.1699 18.5342 5.56777 18.5342C4.96558 18.5342 4.42033 18.2866 4.02573 17.8865C3.63115 17.4864 3.38693 16.9337 3.38693 16.3232C3.38693 15.7127 3.63115 15.1601 4.02573 14.7599C4.42033 14.3598 4.96558 14.1122 5.56777 14.1122" fill="#352868"/>
<path fill-rule="evenodd" clip-rule="evenodd" d="M53.8031 17.0958L47.4697 2.4338C47.2094 1.83147 46.7316 1.39235 46.1716 1.17034C45.6117 0.948474 44.9678 0.942385 44.3751 1.20538L37.8955 4.08189C37.3013 4.34578 36.8682 4.83019 36.6493 5.39792C36.4304 5.96565 36.4242 6.61846 36.6838 7.21931L36.6964 7.24841L42.7195 21.1921L43.0172 21.8813C43.2775 22.4837 43.7552 22.9228 44.3152 23.1447C44.8753 23.3667 45.5191 23.3728 46.1119 23.1097L52.5912 20.2332C53.1855 19.9695 53.6187 19.485 53.8375 18.9173C54.0567 18.3496 54.0627 17.6967 53.8031 17.0958V17.0958ZM47.9174 14.8513C48.5103 14.7598 49.085 14.9216 49.5343 15.2567C49.9848 15.5929 50.309 16.1028 50.3997 16.7058C50.4898 17.3071 50.3304 17.8895 49.9996 18.345C49.6681 18.802 49.1653 19.1305 48.5702 19.2222C47.9773 19.3138 47.4028 19.1521 46.9535 18.8169C46.5026 18.4807 46.1786 17.9709 46.0881 17.3677C45.998 16.7666 46.1574 16.184 46.4878 15.7287C46.8196 15.2716 47.3225 14.9431 47.9174 14.8513" fill="#352868"/>
</g>
<defs>
<clipPath id="clip0">
<rect width="54" height="31" fill="white"/>
</clipPath>
</defs>
</svg>
