<?xml version="1.0" encoding="UTF-8" standalone="no"?>
<svg
   xmlns:dc="http://purl.org/dc/elements/1.1/"
   xmlns:cc="http://creativecommons.org/ns#"
   xmlns:rdf="http://www.w3.org/1999/02/22-rdf-syntax-ns#"
   xmlns:svg="http://www.w3.org/2000/svg"
   xmlns="http://www.w3.org/2000/svg"
   viewBox="0 0 491.51999 278.33334"
   height="278.33334"
   width="491.51999"
   xml:space="preserve"
   id="svg2"
   version="1.1"><metadata
     id="metadata8"><rdf:RDF><cc:Work
         rdf:about=""><dc:format>image/svg+xml</dc:format><dc:type
           rdf:resource="http://purl.org/dc/dcmitype/StillImage" /></cc:Work></rdf:RDF></metadata><defs
     id="defs6" /><g
     transform="matrix(1.3333333,0,0,-1.3333333,0,278.33333)"
     id="g10"><g
       transform="scale(0.1)"
       id="g12"><path
         id="path14"
         style="fill:#191716;fill-opacity:1;fill-rule:evenodd;stroke:none"
         d="m 1330.15,1173.72 c -57.08,85.59 -18.47,213.58 16.88,300.46 31.99,78.63 76.03,160.25 122.67,231.48 l 14.65,22.38 26.7,1.72 c 50.53,3.25 100.75,7.97 151.11,13.03 37.5,3.77 75.03,7.6 112.68,9.35 92.59,4.32 177.48,-6.73 268.03,-25.68 69.88,-14.62 139.32,-32.81 208.08,-51.93 64.08,-17.82 127.93,-36.64 191.6,-55.96 2.98,-13.16 7.2,-26.11 12.7,-38.66 l 412.04,-940.926 3.98,-9.101 c -17.1,-11.836 -34.07,-23.856 -50.98,-35.957 l -41.72,-29.856 -31.61,40.422 c -45.01,57.598 -94.04,113.184 -143,167.461 -134.44,149.055 -402.07,456.447 -565.05,524.887 -68.16,28.62 -132.34,33.57 -202.03,7.75 -60.88,-22.56 -116.99,-64.43 -168.93,-102.66 -101.61,-74.79 -246.78,-164.64 -337.8,-28.21" /><path
         id="path16"
         style="fill:#191716;fill-opacity:1;fill-rule:evenodd;stroke:none"
         d="m 2816.74,427.629 c -5.56,-27.883 -19.05,-53.613 -39.68,-73.305 -23.78,-22.683 -54.4,-34.969 -86.77,-38.699 -39.78,-4.59 -80.74,3.145 -118.96,16.328 l -293.47,321.074 c -9.93,10.86 -26.79,11.602 -37.63,1.68 -10.85,-9.93 -11.6,-26.785 -1.68,-37.637 l 303.54,-332.09 c 3.27,-26.843 2.11,-54.207 -7.53,-79.101 -9.26,-23.867 -26.25,-42.859 -48.7,-54.981 -22.02,-11.882 -47.25,-16.785 -72.12,-16.835 -15.94,-0.032 -32.8,1.843 -49.28,5.8 l -332.14,354.571 c -10.11,10.734 -27.02,11.25 -37.75,1.152 -10.74,-10.106 -11.25,-27.012 -1.15,-37.742 L 2302.4,127.988 C 2276.67,2.53906 2171.26,-28.5742 2065.12,25.3633 l -7.23,3.6797 -50.05,48.6133 c -0.36,0.4101 -0.72,0.8007 -1.11,1.1914 L 1776.89,311.027 c -10.4,10.45 -27.3,10.496 -37.75,0.094 -10.44,-10.387 -10.49,-27.281 -0.1,-37.73 l 199.5,-201.5277 -31.51,-8.5508 c -36.84,-9.9922 -74.6,-18.4961 -112.54,-23.0195 -55.59,-6.6211 -120.38,-5.918 -167.46,28.6133 -56.69,41.5737 -112.74,89.0817 -167.19,133.6717 -89.29,73.137 -178.13,146.856 -266.86,220.684 -118.66,98.73 -237.101,197.754 -355.367,296.98 L 1107.16,1726.2 c 92.52,-3.15 185.23,-4.33 277.78,-2 l 33.52,0.84 c -46.61,-72.42 -88.64,-151.14 -121.01,-230.68 -43.14,-106.02 -80.86,-246.86 -11.83,-350.34 88.22,-132.26 221.01,-107.37 338.95,-36.11 25.9,15.65 50.74,32.98 75.1,50.91 47.42,34.89 100.31,75.01 155.8,95.57 56.85,21.06 107.38,16.33 162.71,-6.91 47.27,-19.84 98,-59.36 137.18,-92.05 131.62,-109.83 637.41,-657.024 661.38,-727.801" /><path
         id="path18"
         style="fill:#191716;fill-opacity:1;fill-rule:evenodd;stroke:none"
         d="M 781.969,719.387 1060.93,1760.5 c 11.39,42.52 4.33,85.91 -16.24,121.53 v 0.21 c -20.55,35.58 -54.639,63.39 -97.303,74.83 l -466.426,124.98 c -42.527,11.38 -85.906,4.32 -121.531,-16.25 h -0.211 c -35.586,-20.55 -63.399,-54.64 -74.828,-97.3 L 5.42578,927.383 C -5.96094,884.863 1.10547,841.484 21.6719,805.859 v -0.214 C 42.2188,770.059 76.3086,742.258 118.977,730.82 L 585.402,605.84 c 42.524,-11.387 85.903,-4.324 121.532,16.238 h 0.211 c 35.585,20.559 63.39,54.641 74.824,97.309 z M 380.094,1137.2 c 41.105,0 78.328,-16.67 105.269,-43.61 26.942,-26.95 43.614,-64.16 43.614,-105.27 0,-41.113 -16.672,-78.332 -43.614,-105.273 -26.941,-26.942 -64.164,-43.613 -105.269,-43.613 -41.11,0 -78.332,16.671 -105.27,43.613 -26.937,26.941 -43.609,64.16 -43.609,105.273 0,41.11 16.672,78.32 43.609,105.27 26.938,26.94 64.16,43.61 105.27,43.61" /><path
         id="path20"
         style="fill:#191716;fill-opacity:1;fill-rule:evenodd;stroke:none"
         d="M 3672.96,936.289 3240.6,1923.61 c -17.77,40.56 -50.39,70.13 -88.62,85.08 -38.22,14.94 -82.18,15.35 -122.64,-2.36 L 2587,1812.63 c -40.56,-17.77 -70.13,-50.39 -85.07,-88.62 -14.95,-38.23 -15.37,-82.19 2.35,-122.65 l 0.86,-1.96 411.18,-938.951 20.32,-46.406 c 17.77,-40.566 50.38,-70.137 88.61,-85.078 38.24,-14.949 82.19,-15.36 122.66,2.355 l 442.32,193.7 c 40.57,17.761 70.14,50.382 85.08,88.613 14.96,38.23 15.37,82.195 -2.35,122.656 z m -401.8,151.141 c 40.48,6.16 79.71,-4.73 110.38,-27.3 30.76,-22.64 52.89,-56.97 59.08,-97.579 6.15,-40.488 -4.73,-79.707 -27.31,-110.383 -22.63,-30.77 -56.96,-52.891 -97.58,-59.07 -40.48,-6.164 -79.7,4.722 -110.37,27.293 -30.78,22.644 -52.9,56.972 -59.08,97.589 -6.15,40.477 4.73,79.708 27.29,110.37 22.65,30.78 56.98,52.9 97.59,59.08" /></g></g></svg>